<svg width="502" height="285" viewBox="0 0 502 285" fill="none" xmlns="http://www.w3.org/2000/svg">
<g clip-path="url(#clip0_227_678)">
<path d="M41.6925 158.235C41.6925 161.747 40.8144 164.746 39.0582 167.232C37.329 169.691 34.8974 171.568 31.7633 172.865C28.6292 174.162 24.9412 174.811 20.6993 174.811C18.4568 174.811 16.3359 174.702 14.3365 174.486C12.3372 174.27 10.4999 173.959 8.8248 173.554C7.14967 173.149 5.67717 172.649 4.40732 172.055V165.449C6.43369 166.286 8.90585 167.07 11.8238 167.799C14.7418 168.502 17.7949 168.853 20.983 168.853C23.955 168.853 26.4677 168.461 28.5211 167.678C30.5745 166.867 32.128 165.719 33.1817 164.233C34.2625 162.72 34.8028 160.91 34.8028 158.802C34.8028 156.776 34.357 155.087 33.4654 153.736C32.5738 152.358 31.0878 151.116 29.0074 150.008C26.954 148.873 24.1441 147.671 20.5777 146.401C18.065 145.509 15.8495 144.537 13.9312 143.483C12.0129 142.402 10.4054 141.186 9.10849 139.835C7.81161 138.485 6.82545 136.917 6.14999 135.134C5.50156 133.351 5.17734 131.311 5.17734 129.015C5.17734 125.854 5.97438 123.152 7.56845 120.909C9.18954 118.64 11.4185 116.91 14.2555 115.722C17.1194 114.506 20.4021 113.898 24.1036 113.898C27.2647 113.898 30.1827 114.195 32.8575 114.79C35.5593 115.384 38.0315 116.181 40.274 117.181L38.1261 123.098C35.9916 122.206 33.7221 121.463 31.3175 120.869C28.9399 120.274 26.4812 119.977 23.9415 119.977C21.4018 119.977 19.2538 120.355 17.4977 121.112C15.7685 121.841 14.4446 122.882 13.526 124.232C12.6074 125.583 12.148 127.191 12.148 129.055C12.148 131.136 12.5803 132.865 13.4449 134.243C14.3365 135.621 15.7415 136.85 17.6598 137.931C19.6051 138.984 22.1718 140.092 25.36 141.254C28.8453 142.524 31.8038 143.875 34.2354 145.307C36.6671 146.712 38.5178 148.441 39.7877 150.494C41.0575 152.521 41.6925 155.101 41.6925 158.235ZM104.283 174H96.3395L64.0393 124.232H63.715C63.7961 125.556 63.8907 127.069 63.9987 128.771C64.1068 130.447 64.1879 132.243 64.2419 134.162C64.3229 136.053 64.3635 137.985 64.3635 139.957V174H57.9602V114.749H65.863L98.0417 164.354H98.3254C98.2713 163.409 98.2038 162.071 98.1227 160.342C98.0417 158.586 97.9606 156.708 97.8796 154.709C97.8255 152.683 97.7985 150.805 97.7985 149.076V114.749H104.283V174ZM161.767 174L154.472 155.195H130.723L123.469 174H116.498L139.679 114.506H145.88L168.9 174H161.767ZM152.405 149.076L145.475 130.393C145.313 129.906 145.043 129.109 144.664 128.001C144.313 126.894 143.948 125.745 143.57 124.557C143.192 123.368 142.881 122.409 142.638 121.679C142.368 122.787 142.071 123.895 141.746 125.002C141.449 126.083 141.152 127.096 140.855 128.042C140.558 128.961 140.301 129.744 140.085 130.393L133.033 149.076H152.405ZM223.993 174H215.847L194.489 145.185L188.166 150.859V174H181.277V114.749H188.166V144.293C189.706 142.537 191.287 140.795 192.908 139.065C194.529 137.309 196.137 135.54 197.731 133.756L215.036 114.749H223.101L199.514 140.443L223.993 174ZM269.237 174H236.248V114.749H269.237V120.828H243.138V139.998H267.738V145.996H243.138V167.921H269.237V174ZM333.57 143.807C333.57 150.481 332.355 156.06 329.923 160.545C327.491 165.003 323.965 168.367 319.345 170.636C314.752 172.879 309.173 174 302.608 174H286.518V114.749H304.391C310.416 114.749 315.603 115.857 319.953 118.072C324.303 120.261 327.653 123.516 330.004 127.839C332.382 132.135 333.57 137.458 333.57 143.807ZM326.316 144.05C326.316 138.728 325.424 134.337 323.641 130.879C321.885 127.421 319.291 124.854 315.86 123.179C312.456 121.477 308.281 120.625 303.337 120.625H293.408V168.083H301.797C309.956 168.083 316.076 166.07 320.156 162.044C324.263 158.019 326.316 152.021 326.316 144.05ZM388.055 174L380.76 155.195H357.011L349.757 174H342.786L365.968 114.506H372.169L395.188 174H388.055ZM378.694 149.076L371.763 130.393C371.601 129.906 371.331 129.109 370.953 128.001C370.602 126.894 370.237 125.745 369.859 124.557C369.48 123.368 369.17 122.409 368.926 121.679C368.656 122.787 368.359 123.895 368.035 125.002C367.738 126.083 367.44 127.096 367.143 128.042C366.846 128.961 366.589 129.744 366.373 130.393L359.321 149.076H378.694ZM425.762 174H418.832V120.828H400.189V114.749H444.324V120.828H425.762V174ZM494.594 174L487.299 155.195H463.55L456.295 174H449.325L472.506 114.506H478.707L501.726 174H494.594ZM485.232 149.076L478.302 130.393C478.14 129.906 477.869 129.109 477.491 128.001C477.14 126.894 476.775 125.745 476.397 124.557C476.019 123.368 475.708 122.409 475.465 121.679C475.195 122.787 474.897 123.895 474.573 125.002C474.276 126.083 473.979 127.096 473.682 128.042C473.384 128.961 473.128 129.744 472.912 130.393L465.86 149.076H485.232Z" fill="white"/>
<path fill-rule="evenodd" clip-rule="evenodd" d="M386.855 104.855H392.975C376.464 44.4211 321.17 0 255.5 0C189.83 0 134.536 44.4211 118.025 104.855H124.145C140.49 47.7154 193.111 5.89233 255.5 5.89233C317.889 5.89233 370.51 47.7154 386.855 104.855ZM124.334 180.8H118.206C134.936 240.899 190.068 285 255.5 285C320.932 285 376.064 240.899 392.794 180.8H386.666C370.107 237.604 317.65 279.108 255.5 279.108C193.35 279.108 140.893 237.604 124.334 180.8ZM347.361 180.8C332.359 216.741 296.879 242 255.5 242C214.121 242 178.641 216.741 163.639 180.8H170.061C184.698 213.402 217.448 236.108 255.5 236.108C293.553 236.108 326.302 213.402 340.939 180.8H347.361ZM163.368 104.855H169.77C184.261 71.9022 217.193 48.8923 255.5 48.8923C293.807 48.8923 326.739 71.9022 341.23 104.855H347.632C332.789 68.5664 297.13 43 255.5 43C213.87 43 178.211 68.5664 163.368 104.855Z" fill="url(#paint0_linear_227_678)"/>
</g>
<defs>
<linearGradient id="paint0_linear_227_678" x1="255.5" y1="0" x2="255.5" y2="285" gradientUnits="userSpaceOnUse">
<stop stop-color="#FFA800"/>
<stop offset="1" stop-color="#E26D00"/>
</linearGradient>
<clipPath id="clip0_227_678">
<rect width="502" height="285" fill="white"/>
</clipPath>
</defs>
</svg>
