<svg width="74" height="54" viewBox="0 0 74 54" fill="none" xmlns="http://www.w3.org/2000/svg">
<g id="arrow1" clip-path="url(#clip0_305_661)">
<path id="Rectangle 108 (Stroke)" fill-rule="evenodd" clip-rule="evenodd" d="M2 32C3.10457 32 4 32.8954 4 34V46C4 48.2091 5.79086 50 8 50H66C68.2091 50 70 48.2091 70 46V34C70 32.8954 70.8954 32 72 32C73.1046 32 74 32.8954 74 34V46C74 50.4183 70.4183 54 66 54H8C3.58172 54 0 50.4183 0 46V34C0 32.8954 0.89543 32 2 32Z" fill="url(#paint0_linear_305_661)"/>
<path id="Arrow 1 (Stroke)" fill-rule="evenodd" clip-rule="evenodd" d="M51.1422 25.6863L38.4143 38.4142C37.6333 39.1953 36.3669 39.1953 35.5859 38.4142L22.858 25.6863C22.0769 24.9052 22.0769 23.6389 22.858 22.8579C23.639 22.0768 24.9054 22.0768 25.6864 22.8579L35.0001 32.1716L35.0001 2C35.0001 0.895431 35.8955 6.9206e-07 37.0001 6.43778e-07C38.1047 5.95496e-07 39.0001 0.895431 39.0001 2L39.0001 32.1716L48.3138 22.8579C49.0949 22.0768 50.3612 22.0768 51.1422 22.8579C51.9233 23.6389 51.9233 24.9052 51.1422 25.6863Z" fill="url(#paint1_linear_305_661)"/>
</g>
<defs>
<linearGradient id="paint0_linear_305_661" x1="37" y1="-3.80386e-06" x2="37" y2="54" gradientUnits="userSpaceOnUse">
<stop stop-color="#FFA800"/>
<stop offset="1" stop-color="#E26D00"/>
</linearGradient>
<linearGradient id="paint1_linear_305_661" x1="37" y1="0" x2="37" y2="54" gradientUnits="userSpaceOnUse">
<stop stop-color="#FFA800"/>
<stop offset="1" stop-color="#E26D00"/>
</linearGradient>
<clipPath id="clip0_305_661">
<rect width="74" height="54" fill="white"/>
</clipPath>
</defs>
</svg>
