<svg width="82" height="62" viewBox="0 0 82 62" fill="none" xmlns="http://www.w3.org/2000/svg">
<g clip-path="url(#clip0_305_661)" filter="url(#filter0_d_305_661)">
<path fill-rule="evenodd" clip-rule="evenodd" d="M42.4142 38.4142L55.1421 25.6863C55.9232 24.9052 55.9232 23.6389 55.1421 22.8579C54.3611 22.0768 53.0948 22.0768 52.3137 22.8579L43 32.1716V2C43 0.89543 42.1046 0 41 0C39.8954 0 39 0.895431 39 2V32.1716L29.6863 22.8579C28.9052 22.0768 27.6389 22.0768 26.8579 22.8579C26.0768 23.6389 26.0768 24.9052 26.8579 25.6863L39.5858 38.4142C40.3668 39.1953 41.6332 39.1953 42.4142 38.4142ZM8 34C8 32.8954 7.10457 32 6 32C4.89543 32 4 32.8954 4 34V46C4 50.4183 7.58172 54 12 54H70C74.4183 54 78 50.4183 78 46V34C78 32.8954 77.1046 32 76 32C74.8954 32 74 32.8954 74 34V46C74 48.2091 72.2091 50 70 50H12C9.79086 50 8 48.2091 8 46V34Z" fill="#E26D00"/>
<path fill-rule="evenodd" clip-rule="evenodd" d="M42.4142 38.4142L55.1421 25.6863C55.9232 24.9052 55.9232 23.6389 55.1421 22.8579C54.3611 22.0768 53.0948 22.0768 52.3137 22.8579L43 32.1716V2C43 0.89543 42.1046 0 41 0C39.8954 0 39 0.895431 39 2V32.1716L29.6863 22.8579C28.9052 22.0768 27.6389 22.0768 26.8579 22.8579C26.0768 23.6389 26.0768 24.9052 26.8579 25.6863L39.5858 38.4142C40.3668 39.1953 41.6332 39.1953 42.4142 38.4142ZM8 34C8 32.8954 7.10457 32 6 32C4.89543 32 4 32.8954 4 34V46C4 50.4183 7.58172 54 12 54H70C74.4183 54 78 50.4183 78 46V34C78 32.8954 77.1046 32 76 32C74.8954 32 74 32.8954 74 34V46C74 48.2091 72.2091 50 70 50H12C9.79086 50 8 48.2091 8 46V34Z" fill="url(#paint0_linear_305_661)"/>
</g>
<defs>
<filter id="filter0_d_305_661" x="0" y="0" width="82" height="62" filterUnits="userSpaceOnUse" color-interpolation-filters="sRGB">
<feFlood flood-opacity="0" result="BackgroundImageFix"/>
<feColorMatrix in="SourceAlpha" type="matrix" values="0 0 0 0 0 0 0 0 0 0 0 0 0 0 0 0 0 0 127 0" result="hardAlpha"/>
<feOffset dy="4"/>
<feGaussianBlur stdDeviation="2"/>
<feComposite in2="hardAlpha" operator="out"/>
<feColorMatrix type="matrix" values="0 0 0 0 0 0 0 0 0 0 0 0 0 0 0 0 0 0 0.25 0"/>
<feBlend mode="normal" in2="BackgroundImageFix" result="effect1_dropShadow_305_661"/>
<feBlend mode="normal" in="SourceGraphic" in2="effect1_dropShadow_305_661" result="shape"/>
</filter>
<linearGradient id="paint0_linear_305_661" x1="41" y1="0" x2="41" y2="54" gradientUnits="userSpaceOnUse">
<stop stop-color="#FFA800"/>
<stop offset="1" stop-color="#E26D00"/>
</linearGradient>
<clipPath id="clip0_305_661">
<rect width="74" height="54" fill="white" transform="translate(4)"/>
</clipPath>
</defs>
</svg>
