<svg width="74" height="54" viewBox="0 0 74 54" fill="none" xmlns="http://www.w3.org/2000/svg">
<g id="arrow3">
<path id="Rectangle 108 (Stroke)" fill-rule="evenodd" clip-rule="evenodd" d="M2 32C3.10457 32 4 32.8954 4 34V46C4 48.2091 5.79086 50 8 50H66C68.2091 50 70 48.2091 70 46V34C70 32.8954 70.8954 32 72 32C73.1046 32 74 32.8954 74 34V46C74 50.4183 70.4183 54 66 54H8C3.58172 54 0 50.4183 0 46V34C0 32.8954 0.89543 32 2 32Z" fill="url(#paint0_linear_324_661)"/>
<path id="Arrow 1 (Stroke)" fill-rule="evenodd" clip-rule="evenodd" d="M64 46L38.3284 46C36.9999 46 36.9999 46 35.5 46L10 46C8.00006 46 8.00011 45.9999 8.00006 44.5C8 43 8.00006 43 10 43L30 43L35 42.9999C35.9999 42.9999 35.8953 43 36.9999 43C38.1044 43 37.9999 43 39 42.9999L44 43L64 43C66 43 66 43 66 44.5C66 46 66 45.9999 64 46Z" fill="url(#paint1_linear_324_661)"/>
</g>
<defs>
<linearGradient id="paint0_linear_324_661" x1="37" y1="-3.80386e-06" x2="37" y2="54" gradientUnits="userSpaceOnUse">
<stop stop-color="#FFA800"/>
<stop offset="1" stop-color="#E26D00"/>
</linearGradient>
<linearGradient id="paint1_linear_324_661" x1="37" y1="7.99999" x2="37" y2="62" gradientUnits="userSpaceOnUse">
<stop stop-color="#FFA800"/>
<stop offset="1" stop-color="#E26D00"/>
</linearGradient>
</defs>
</svg>
