<svg width="74" height="54" viewBox="0 0 74 54" fill="none" xmlns="http://www.w3.org/2000/svg">
<g id="arrow2">
<path id="Rectangle 108 (Stroke)" fill-rule="evenodd" clip-rule="evenodd" d="M2 32C3.10457 32 4 32.8954 4 34V46C4 48.2091 5.79086 50 8 50H66C68.2091 50 70 48.2091 70 46V34C70 32.8954 70.8954 32 72 32C73.1046 32 74 32.8954 74 34V46C74 50.4183 70.4183 54 66 54H8C3.58172 54 0 50.4183 0 46V34C0 32.8954 0.89543 32 2 32Z" fill="url(#paint0_linear_324_655)"/>
<path id="Arrow 1 (Stroke)" fill-rule="evenodd" clip-rule="evenodd" d="M51.1422 33.6863L38.4143 46.4142C37.6333 47.1953 36.3669 47.1953 35.5859 46.4142L22.858 33.6863C22.0769 32.9052 22.0769 31.6389 22.858 30.8579C23.639 30.0768 24.9053 30.0768 25.6864 30.8579L35.0001 40.1716L35.0001 10C35.0001 8.89543 35.8955 8 37.0001 8C38.1047 8 39.0001 8.89543 39.0001 10L39.0001 40.1716L48.3138 30.8579C49.0949 30.0768 50.3612 30.0768 51.1422 30.8579C51.9233 31.6389 51.9233 32.9052 51.1422 33.6863Z" fill="url(#paint1_linear_324_655)"/>
</g>
<defs>
<linearGradient id="paint0_linear_324_655" x1="37" y1="-3.80386e-06" x2="37" y2="54" gradientUnits="userSpaceOnUse">
<stop stop-color="#FFA800"/>
<stop offset="1" stop-color="#E26D00"/>
</linearGradient>
<linearGradient id="paint1_linear_324_655" x1="37" y1="8" x2="37" y2="62" gradientUnits="userSpaceOnUse">
<stop stop-color="#FFA800"/>
<stop offset="1" stop-color="#E26D00"/>
</linearGradient>
</defs>
</svg>
