<svg width="41" height="41" viewBox="0 0 41 41" fill="none" xmlns="http://www.w3.org/2000/svg">
<g id="paper" clip-path="url(#clip0_349_682)">
<g id="Union">
<path fill-rule="evenodd" clip-rule="evenodd" d="M4.243 1.41422C3.46195 0.633168 2.19562 0.633168 1.41457 1.41422C0.633525 2.19527 0.633524 3.46159 1.41457 4.24264L17.6779 20.506L1.4144 36.7696C0.633351 37.5506 0.633351 38.8169 1.4144 39.598C2.19545 40.379 3.46178 40.379 4.24282 39.598L20.5064 23.3344L36.7699 39.598C37.551 40.379 38.8173 40.379 39.5983 39.598C40.3794 38.8169 40.3794 37.5506 39.5983 36.7696L23.3348 20.506L39.5982 4.24265C40.3792 3.4616 40.3792 2.19527 39.5982 1.41422C38.8171 0.633172 37.5508 0.633172 36.7697 1.41422L20.5064 17.6776L4.243 1.41422Z" fill="#D9D9D9"/>
<path fill-rule="evenodd" clip-rule="evenodd" d="M4.243 1.41422C3.46195 0.633168 2.19562 0.633168 1.41457 1.41422C0.633525 2.19527 0.633524 3.46159 1.41457 4.24264L17.6779 20.506L1.4144 36.7696C0.633351 37.5506 0.633351 38.8169 1.4144 39.598C2.19545 40.379 3.46178 40.379 4.24282 39.598L20.5064 23.3344L36.7699 39.598C37.551 40.379 38.8173 40.379 39.5983 39.598C40.3794 38.8169 40.3794 37.5506 39.5983 36.7696L23.3348 20.506L39.5982 4.24265C40.3792 3.4616 40.3792 2.19527 39.5982 1.41422C38.8171 0.633172 37.5508 0.633172 36.7697 1.41422L20.5064 17.6776L4.243 1.41422Z" fill="url(#paint0_linear_349_682)"/>
</g>
</g>
<defs>
<linearGradient id="paint0_linear_349_682" x1="20.5064" y1="0.82843" x2="20.5064" y2="40.1838" gradientUnits="userSpaceOnUse">
<stop stop-color="#FFA800"/>
<stop offset="1" stop-color="#E26D00"/>
</linearGradient>
<clipPath id="clip0_349_682">
<rect width="41" height="41" fill="white"/>
</clipPath>
</defs>
</svg>
