<svg width="37" height="53" viewBox="0 0 37 53" fill="none" xmlns="http://www.w3.org/2000/svg">
<g id="paper" clip-path="url(#clip0_335_664)">
<path id="Rectangle 109 (Stroke)" fill-rule="evenodd" clip-rule="evenodd" d="M18.5 3H6C4.34314 3 3 4.34315 3 6V47C3 48.6569 4.34315 50 6 50H31C32.6569 50 34 48.6569 34 47V18.5H26C21.8579 18.5 18.5 15.1421 18.5 11V3ZM37 17V47C37 50.3137 34.3137 53 31 53H6C2.68629 53 0 50.3137 0 47V6C0 2.68629 2.68629 0 6 0H20L37 17ZM21.5 5.74264L31.2574 15.5H26C23.5147 15.5 21.5 13.4853 21.5 11V5.74264Z" fill="url(#paint0_linear_335_664)"/>
<path id="arrow" fill-rule="evenodd" clip-rule="evenodd" d="M32.8703 32.6863L20.1423 45.4142C19.3613 46.1953 18.095 46.1953 17.3139 45.4142L4.586 32.6863C3.80495 31.9052 3.80495 30.6389 4.586 29.8579C5.36705 29.0768 6.63338 29.0768 7.41443 29.8579L16.7281 39.1716L16.7281 9C16.7281 7.89543 17.6236 7 18.7281 7C19.8327 7 20.7281 7.89543 20.7281 9L20.7281 39.1716L30.0418 29.8579C30.8229 29.0768 32.0892 29.0768 32.8703 29.8579C33.6513 30.6389 33.6513 31.9052 32.8703 32.6863Z" fill="url(#paint1_linear_335_664)"/>
</g>
<defs>
<linearGradient id="paint0_linear_335_664" x1="18.5" y1="0" x2="18.5" y2="53" gradientUnits="userSpaceOnUse">
<stop stop-color="#FFA800"/>
<stop offset="1" stop-color="#E26D00"/>
</linearGradient>
<linearGradient id="paint1_linear_335_664" x1="18.728" y1="7" x2="18.728" y2="61" gradientUnits="userSpaceOnUse">
<stop stop-color="#FFA800"/>
<stop offset="1" stop-color="#E26D00"/>
</linearGradient>
<clipPath id="clip0_335_664">
<rect width="37" height="53" fill="white"/>
</clipPath>
</defs>
</svg>
